<?xml version="1.0" standalone="no"?>
<!DOCTYPE svg PUBLIC "-//W3C//DTD SVG 20010904//EN"
 "http://www.w3.org/TR/2001/REC-SVG-20010904/DTD/svg10.dtd">
<svg version="1.0" xmlns="http://www.w3.org/2000/svg"
 width="635.000000pt" height="635.000000pt" viewBox="0 0 635.000000 635.000000"
 preserveAspectRatio="xMidYMid meet">
<metadata>
Created by potrace 1.11, written by Peter Selinger 2001-2013
</metadata>
<g transform="translate(0.000000,635.000000) scale(0.100000,-0.100000)"
fill="#000000" stroke="none">
<path d="M0 5460 l0 -890 890 0 890 0 0 890 0 890 -890 0 -890 0 0 -890z
m1520 0 l0 -630 -630 0 -630 0 0 630 0 630 630 0 630 0 0 -630z"/>
<path d="M510 5460 l0 -380 380 0 380 0 0 380 0 380 -380 0 -380 0 0 -380z"/>
<path d="M2030 6220 l0 -130 385 0 385 0 0 -255 0 -255 -130 0 -130 0 0 130 0
130 -125 0 -125 0 0 -130 0 -130 125 0 125 0 0 -250 0 -250 -125 0 -125 0 0
-125 0 -125 -130 0 -130 0 0 -255 0 -255 130 0 130 0 0 -130 0 -130 -130 0
-130 0 0 -125 0 -125 -255 0 -255 0 0 -130 0 -130 255 0 255 0 0 130 0 130
130 0 130 0 0 -130 0 -130 125 0 125 0 0 130 0 130 130 0 130 0 0 -255 0 -255
-640 0 -640 0 0 -125 0 -125 385 0 385 0 0 -255 0 -255 125 0 125 0 0 130 0
130 255 0 255 0 0 -130 0 -130 125 0 125 0 0 130 0 130 125 0 125 0 0 125 0
125 -125 0 -125 0 0 125 0 125 -125 0 -125 0 0 380 0 380 125 0 125 0 0 130 0
130 125 0 125 0 0 -130 0 -130 130 0 130 0 0 -125 0 -125 -130 0 -130 0 0
-255 0 -255 255 0 255 0 0 -125 0 -125 -125 0 -125 0 0 -255 0 -255 -130 0
-130 0 0 -125 0 -125 -125 0 -125 0 0 -130 0 -130 125 0 125 0 0 -255 0 -255
-125 0 -125 0 0 130 0 130 -250 0 -250 0 0 125 0 125 125 0 125 0 0 130 0 130
-255 0 -255 0 0 -255 0 -255 -125 0 -125 0 0 255 0 255 -385 0 -385 0 0 125 0
125 130 0 130 0 0 130 0 130 -255 0 -255 0 0 125 0 125 -250 0 -250 0 0 250 0
250 250 0 250 0 0 385 0 385 -250 0 -250 0 0 -255 0 -255 -255 0 -255 0 0 125
0 125 125 0 125 0 0 130 0 130 -255 0 -255 0 0 -255 0 -255 130 0 130 0 0
-130 0 -130 125 0 125 0 0 -375 0 -375 -125 0 -125 0 0 250 0 250 -130 0 -130
0 0 -635 0 -635 130 0 130 0 0 255 0 255 380 0 380 0 0 130 0 130 125 0 125 0
0 -255 0 -255 125 0 125 0 0 -130 0 -130 255 0 255 0 0 -125 0 -125 130 0 130
0 0 -130 0 -130 125 0 125 0 0 -250 0 -250 -125 0 -125 0 0 125 0 125 -130 0
-130 0 0 -250 0 -250 385 0 385 0 0 -130 0 -130 250 0 250 0 0 130 0 130 -125
0 -125 0 0 125 0 125 125 0 125 0 0 125 0 125 255 0 255 0 0 -380 0 -380 125
0 125 0 0 255 0 255 130 0 130 0 0 -125 0 -125 255 0 255 0 0 -130 0 -130
-130 0 -130 0 0 -125 0 -125 -255 0 -255 0 0 -130 0 -130 385 0 385 0 0 130 0
130 250 0 250 0 0 -130 0 -130 125 0 125 0 0 130 0 130 255 0 255 0 0 -130 0
-130 130 0 130 0 0 510 0 510 -130 0 -130 0 0 125 0 125 130 0 130 0 0 255 0
255 -130 0 -130 0 0 255 0 255 130 0 130 0 0 255 0 255 -130 0 -130 0 0 125 0
125 130 0 130 0 0 380 0 380 -130 0 -130 0 0 125 0 125 130 0 130 0 0 130 0
130 -130 0 -130 0 0 -130 0 -130 -505 0 -505 0 0 -255 0 -255 -255 0 -255 0 0
-250 0 -250 130 0 130 0 0 125 0 125 125 0 125 0 0 125 0 125 125 0 125 0 0
-125 0 -125 380 0 380 0 0 -125 0 -125 -125 0 -125 0 0 -125 0 -125 -255 0
-255 0 0 125 0 125 -125 0 -125 0 0 -380 0 -380 -125 0 -125 0 0 125 0 125
-255 0 -255 0 0 130 0 130 -130 0 -130 0 0 125 0 125 130 0 130 0 0 125 0 125
-130 0 -130 0 0 380 0 380 130 0 130 0 0 130 0 130 -130 0 -130 0 0 125 0 125
130 0 130 0 0 130 0 130 -130 0 -130 0 0 -130 0 -130 -125 0 -125 0 0 380 0
380 125 0 125 0 0 -125 0 -125 130 0 130 0 0 250 0 250 -255 0 -255 0 0 130 0
130 -130 0 -130 0 0 125 0 125 130 0 130 0 0 130 0 130 -130 0 -130 0 0 -130
0 -130 -250 0 -250 0 0 130 0 130 -510 0 -510 0 0 -130z m1270 -510 l0 -130
-125 0 -125 0 0 130 0 130 125 0 125 0 0 -130z m-500 -755 l0 -125 125 0 125
0 0 -130 0 -130 125 0 125 0 0 130 0 130 125 0 125 0 0 -130 0 -130 130 0 130
0 0 -125 0 -125 -130 0 -130 0 0 125 0 125 -125 0 -125 0 0 -125 0 -125 -250
0 -250 0 0 -130 0 -130 -130 0 -130 0 0 -125 0 -125 -125 0 -125 0 0 125 0
125 125 0 125 0 0 255 0 255 -125 0 -125 0 0 130 0 130 125 0 125 0 0 125 0
125 130 0 130 0 0 -125z m3290 -1275 l0 -130 -255 0 -255 0 0 130 0 130 255 0
255 0 0 -130z m-3040 -505 l0 -125 125 0 125 0 0 -125 0 -125 -125 0 -125 0 0
125 0 125 -125 0 -125 0 0 125 0 125 125 0 125 0 0 -125z m1010 -1145 l0 -510
-125 0 -125 0 0 510 0 510 125 0 125 0 0 -510z m1520 255 l0 -255 130 0 130 0
0 -125 0 -125 125 0 125 0 0 -255 0 -255 -125 0 -125 0 0 -250 0 -250 -130 0
-130 0 0 -255 0 -255 -125 0 -125 0 0 255 0 255 -125 0 -125 0 0 125 0 125
125 0 125 0 0 -125 0 -125 125 0 125 0 0 250 0 250 -125 0 -125 0 0 125 0 125
125 0 125 0 0 130 0 130 -125 0 -125 0 0 380 0 380 125 0 125 0 0 -255z m510
130 l0 -125 -125 0 -125 0 0 125 0 125 125 0 125 0 0 -125z m-1010 -765 l0
-380 -380 0 -380 0 0 380 0 380 380 0 380 0 0 -380z m-2280 0 l0 -130 125 0
125 0 0 -125 0 -125 -125 0 -125 0 0 125 0 125 -130 0 -130 0 0 130 0 130 130
0 130 0 0 -130z"/>
<path d="M2540 4700 l0 -130 130 0 130 0 0 130 0 130 -130 0 -130 0 0 -130z"/>
<path d="M4570 1650 l0 -130 130 0 130 0 0 130 0 130 -130 0 -130 0 0 -130z"/>
<path d="M4570 5460 l0 -890 890 0 890 0 0 890 0 890 -890 0 -890 0 0 -890z
m1520 0 l0 -630 -630 0 -630 0 0 630 0 630 630 0 630 0 0 -630z"/>
<path d="M5080 5460 l0 -380 380 0 380 0 0 380 0 380 -380 0 -380 0 0 -380z"/>
<path d="M4060 5965 l0 -125 130 0 130 0 0 125 0 125 -130 0 -130 0 0 -125z"/>
<path d="M1520 4190 l0 -130 130 0 130 0 0 130 0 130 -130 0 -130 0 0 -130z"/>
<path d="M4570 4190 l0 -130 130 0 130 0 0 130 0 130 -130 0 -130 0 0 -130z"/>
<path d="M510 2160 l0 -130 130 0 130 0 0 130 0 130 -130 0 -130 0 0 -130z"/>
<path d="M0 890 l0 -890 890 0 890 0 0 890 0 890 -890 0 -890 0 0 -890z m1520
0 l0 -630 -630 0 -630 0 0 630 0 630 630 0 630 0 0 -630z"/>
<path d="M510 890 l0 -380 380 0 380 0 0 380 0 380 -380 0 -380 0 0 -380z"/>
<path d="M2030 255 l0 -255 130 0 130 0 0 255 0 255 -130 0 -130 0 0 -255z"/>
<path d="M2540 130 l0 -130 130 0 130 0 0 130 0 130 -130 0 -130 0 0 -130z"/>
<path d="M3050 130 l0 -130 125 0 125 0 0 130 0 130 -125 0 -125 0 0 -130z"/>
<path d="M3550 130 l0 -130 130 0 130 0 0 130 0 130 -130 0 -130 0 0 -130z"/>
</g>
</svg>
